<?xml version="1.0" encoding="utf-8"?>
<!-- Svg Vector Icons : http://www.onlinewebfonts.com/icon -->
<!DOCTYPE svg PUBLIC "-//W3C//DTD SVG 1.1//EN" "http://www.w3.org/Graphics/SVG/1.1/DTD/svg11.dtd">
<svg version="1.1" fill="#E2001A" xmlns="http://www.w3.org/2000/svg" xmlns:xlink="http://www.w3.org/1999/xlink" x="0px" y="0px"
     viewBox="0 0 1000 1000" enable-background="new 0 0 1000 1000" xml:space="preserve">
<metadata> Svg Vector Icons : http://www.onlinewebfonts.com/icon </metadata>
    <g>
    <path d="M505.8,445.3c28.7-28.7,62-51.3,99.3-66.9c0.9-0.4,1.8-0.7,2.8-1.1V240.1l-109.3-64.4L87,319.5l-0.2,599.6H141V348.5l307.9-98.4v273C463.6,494.5,482.8,468.4,505.8,445.3L505.8,445.3z"/>
        <path d="M199.5,485.9l193.5-51.7v-98.8l-193.5,63.5V485.9z"/>
        <path d="M199.5,773.7l193.5-18.1v-95l-193.5,31.5V773.7z"/>
        <path d="M199.5,917.1h193.5v-99.9l-193.5,13.6V917.1z"/>
        <path d="M199.5,631.2l193.5-37.6v-95.2l-193.5,49.3V631.2z"/>
        <path d="M701,354.8c8.5-0.7,17.1-1.1,25.7-1.1c42.2,0,83,8.3,121.6,24.7c4.2,1.8,8.2,3.6,12.1,5.5V113.2L738.3,10L331.8,157.2V194L701,73.5V354.8L701,354.8z"/>
        <path d="M849.7,808.8c37.4-38.3,60.4-90.5,60.4-148.1c0-116.9-95.1-212.1-212-212.1c-116.9,0-212,95.2-212,212.1c0,57.6,23.1,109.9,60.4,148.1L483,932.3l67.8,6l44.3,51.8l62.3-121.1c13.2,2.6,26.8,3.9,40.7,3.9c13.9,0,27.5-1.3,40.7-3.9L801.1,990l44.2-51.8l67.8-6L849.7,808.8L849.7,808.8z"/></g>
</svg>