<svg xmlns:dc="http://purl.org/dc/elements/1.1/" xmlns:cc="http://creativecommons.org/ns#" xmlns:rdf="http://www.w3.org/1999/02/22-rdf-syntax-ns#" xmlns:svg="http://www.w3.org/2000/svg" xmlns="http://www.w3.org/2000/svg" xmlns:sodipodi="http://sodipodi.sourceforge.net/DTD/sodipodi-0.dtd" xmlns:inkscape="http://www.inkscape.org/namespaces/inkscape" version="1.1" id="svg2" xml:space="preserve" sodipodi:docname="sportimpex_logo.ai" viewBox="82.05 404.68 629.38 245.22"><metadata id="metadata8"><rdf:RDF><cc:Work rdf:about=""><dc:format>image/svg+xml</dc:format><dc:type rdf:resource="http://purl.org/dc/dcmitype/StillImage"/></cc:Work></rdf:RDF></metadata><defs id="defs6"><clipPath clipPathUnits="userSpaceOnUse" id="clipPath18"><path d="M 0,841.89 H 595.275 V 0 H 0 Z" id="path16"/></clipPath></defs><sodipodi:namedview pagecolor="#ffffff" bordercolor="#666666" borderopacity="1" objecttolerance="10" gridtolerance="10" guidetolerance="10" inkscape:pageopacity="0" inkscape:pageshadow="2" inkscape:window-width="640" inkscape:window-height="480" id="namedview4"/><g id="g10" inkscape:groupmode="layer" inkscape:label="sportimpex_logo" transform="matrix(1.3333333,0,0,-1.3333333,0,1122.52)"><g id="g12"><g id="g14" clip-path="url(#clipPath18)"><g id="g20" transform="translate(180.9941,515.877)"><path d="m 0,0 c -21.717,5.327 -45.316,-7.889 -45.316,-7.889 0,0 -105.086,-51.208 -65.002,-66.624 l 46.607,-12.549 c 0,0 -57.665,8.761 71.195,70.073 C 7.484,-16.989 26.5,-6.5 0,0" style="fill:#e2001a;fill-opacity:1;fill-rule:nonzero;stroke:none" id="path22"/></g><g id="g24" transform="translate(128.9937,356.377)"><path d="m 0,0 c 13,-5 25.535,1.451 25.535,1.451 0,0 75.288,39.872 28.233,54.698 L 5.842,67.994 c 0,0 74.588,-13.226 -7.989,-58.333 0,0 -9.659,-5.12 2.147,-9.661" style="fill:#fff;fill-opacity:1;fill-rule:nonzero;stroke:none" id="path26"/></g><g id="g28" transform="translate(243.4941,527.377)"><path d="m 0,0 c 0,-6.075 -14.215,-11 -31.75,-11 -17.535,0 -31.75,4.925 -31.75,11 0,6.075 14.215,11 31.75,11 C -14.215,11 0,6.075 0,0" style="fill:#fff;fill-opacity:1;fill-rule:nonzero;stroke:none" id="path30"/></g><g id="g32" transform="translate(240.7168,403.2061)"><path d="m 0,0 c 0,-2.04 -0.717,-3.559 -2.148,-4.557 -1.532,-1.07 -3.966,-1.605 -7.301,-1.605 h -16.129 c -1.174,0 -1.76,0.594 -1.76,1.783 v 0.43 c 0,1.188 0.586,1.783 1.76,1.783 h 16.166 c 1.474,0 2.56,0.148 3.263,0.447 0.8,0.342 1.202,0.917 1.202,1.727 v 0.811 c 0,0.725 -0.326,1.234 -0.978,1.525 -0.65,0.291 -1.684,0.437 -3.101,0.437 h -7.75 c -3.807,0 -6.562,0.508 -8.265,1.526 -1.604,0.959 -2.404,2.434 -2.404,4.425 v 1.182 c 0,1.619 0.708,2.902 2.125,3.848 1.729,1.145 4.448,1.718 8.154,1.718 h 14.935 c 1.187,0 1.781,-0.591 1.781,-1.773 v -0.471 c 0,-1.168 -0.595,-1.752 -1.782,-1.752 h -14.852 c -2.147,0 -3.619,-0.101 -4.413,-0.302 -0.795,-0.203 -1.191,-0.622 -1.191,-1.258 v -1.15 c 0,-0.78 0.529,-1.315 1.588,-1.604 0.846,-0.231 2.299,-0.346 4.363,-0.346 h 7.906 c 2.893,0 5.089,-0.51 6.585,-1.53 C -0.749,4.274 0,2.837 0,0.983 Z" style="fill:#fff;fill-opacity:1;fill-rule:nonzero;stroke:none" id="path34"/></g><g id="g36" transform="translate(270.6924,403.8252)"><path d="m 0,0 v 8.412 c 0,0.889 -0.476,1.522 -1.426,1.895 -0.949,0.373 -2.666,0.558 -5.151,0.558 h -7.413 c -2.128,0 -3.664,-0.164 -4.607,-0.494 -1.142,-0.402 -1.713,-1.09 -1.713,-2.066 V -2.689 h 14.846 c 1.828,0 3.164,0.185 4.007,0.558 C -0.486,-1.701 0,-0.99 0,0 m 4.852,0.084 c 0,-2.277 -0.915,-3.98 -2.746,-5.111 -1.745,-1.075 -4.262,-1.612 -7.55,-1.612 H -20.31 v -4.382 c 0,-1.168 -0.586,-1.752 -1.757,-1.752 h -1.243 c -1.17,0 -1.756,0.585 -1.756,1.758 V 8.424 c 0,2.089 0.735,3.64 2.209,4.656 1.729,1.188 4.618,1.781 8.664,1.781 h 7.592 c 4.046,0 6.998,-0.558 8.858,-1.675 1.729,-1.045 2.595,-2.614 2.595,-4.704 z" style="fill:#fff;fill-opacity:1;fill-rule:nonzero;stroke:none" id="path38"/></g><g id="g40" transform="translate(306.1279,403.7666)"><path d="m 0,0 v 8.348 c 0,0.859 -0.533,1.503 -1.599,1.931 -1.066,0.43 -2.484,0.645 -4.257,0.645 h -7.746 c -2.172,0 -3.826,-0.336 -4.956,-1.008 C -19.473,9.371 -19.93,8.728 -19.93,7.983 V 0 c 0,-0.688 0.408,-1.268 1.222,-1.738 1.13,-0.659 2.84,-0.989 5.129,-0.989 h 7.744 c 1.916,0 3.411,0.308 4.482,0.923 C -0.451,-1.289 0,-0.688 0,0 M 4.852,-0.009 C 4.852,-1.053 4.608,-1.997 4.122,-2.84 3.464,-3.984 2.435,-4.877 1.033,-5.521 -0.697,-6.322 -2.95,-6.723 -5.724,-6.723 h -7.915 c -2.746,0 -5.005,0.379 -6.778,1.138 -1.503,0.643 -2.625,1.529 -3.368,2.659 -0.601,0.914 -0.901,1.887 -0.901,2.917 v 7.98 c 0,1.758 0.822,3.281 2.466,4.568 2.017,1.587 4.869,2.381 8.559,2.381 h 7.937 c 3.646,0 6.321,-0.568 8.022,-1.705 C 4,12.077 4.852,10.344 4.852,8.014 Z" style="fill:#fff;fill-opacity:1;fill-rule:nonzero;stroke:none" id="path42"/></g><g id="g44" transform="translate(330.9922,416.4424)"><path d="M 0,0 C 0,-1.168 -0.596,-1.752 -1.786,-1.752 H -3.98 c -2.038,0 -3.486,-0.271 -4.346,-0.815 -0.675,-0.43 -1.012,-1.06 -1.012,-1.89 v -13.158 c 0,-1.19 -0.584,-1.783 -1.751,-1.783 h -1.302 c -1.168,0 -1.751,0.601 -1.751,1.802 l 0.047,13.127 c 0,2.115 0.931,3.764 2.793,4.944 1.863,1.179 4.398,1.769 7.607,1.769 h 1.912 C -0.595,2.244 0,1.652 0,0.471 Z" style="fill:#fff;fill-opacity:1;fill-rule:nonzero;stroke:none" id="path46"/></g><g id="g48" transform="translate(336.7539,414.501)"><path d="m 0,0 c -1.181,0 -1.771,0.594 -1.771,1.783 v 0.451 c 0,1.174 0.59,1.761 1.771,1.761 H 1.663 V 8.24 c 0,1.165 0.586,1.748 1.757,1.748 H 4.663 C 5.834,9.988 6.42,9.405 6.42,8.24 V 3.995 h 7.577 c 1.191,0 1.787,-0.587 1.787,-1.761 V 1.783 C 15.784,0.594 15.188,0 13.997,0 H 6.42 v -15.679 c 0,-1.185 -0.586,-1.778 -1.757,-1.778 H 3.42 c -1.171,0 -1.757,0.593 -1.757,1.778 V 0 Z" style="fill:#fff;fill-opacity:1;fill-rule:nonzero;stroke:none" id="path50"/></g><g id="g52" transform="translate(374.251,407.9326)"><path d="m 0,0 c 0,-1.171 -0.594,-1.756 -1.781,-1.756 h -14.828 c -1.188,0 -1.782,0.585 -1.782,1.756 v 1.197 c 0,1.17 0.594,1.756 1.782,1.756 H -1.781 C -0.594,2.953 0,2.367 0,1.197 Z" style="fill:#fff;fill-opacity:1;fill-rule:nonzero;stroke:none" id="path54"/></g><g id="g56" transform="translate(383.0605,398.8271)"><path d="M 0,0 C 0,-1.189 -0.596,-1.783 -1.787,-1.783 H -2.97 c -1.191,0 -1.787,0.594 -1.787,1.783 v 16.385 c 0,1.175 0.596,1.761 1.787,1.761 h 1.183 C -0.596,18.146 0,17.56 0,16.385 Z m 0.666,21.035 c 0,-0.728 -0.306,-1.319 -0.917,-1.775 -0.61,-0.457 -1.325,-0.686 -2.145,-0.686 -0.833,0 -1.553,0.215 -2.157,0.643 -0.675,0.471 -1.012,1.076 -1.012,1.818 0,0.742 0.319,1.333 0.96,1.776 0.638,0.441 1.376,0.663 2.209,0.663 0.82,0 1.535,-0.222 2.145,-0.663 0.611,-0.443 0.917,-1.034 0.917,-1.776" style="fill:#fff;fill-opacity:1;fill-rule:nonzero;stroke:none" id="path58"/></g><g id="g60" transform="translate(429.9082,398.8242)"><path d="m 0,0 c 0,-1.187 -0.589,-1.78 -1.766,-1.78 h -1.25 c -1.191,0 -1.788,0.593 -1.788,1.783 v 13.351 c 0,0.86 -0.477,1.493 -1.433,1.901 -0.956,0.408 -2.254,0.611 -3.895,0.611 h -3.144 c -1.571,0 -2.711,-0.2 -3.424,-0.6 -0.884,-0.488 -1.326,-1.331 -1.326,-2.533 V 0.003 c 0,-1.19 -0.594,-1.783 -1.781,-1.783 h -1.244 c -1.186,0 -1.78,0.593 -1.78,1.783 v 12.793 c 0,1.16 -0.34,1.961 -1.021,2.404 -0.68,0.445 -1.83,0.666 -3.448,0.666 h -3.159 c -1.805,0 -3.145,-0.157 -4.019,-0.47 -1.145,-0.417 -1.718,-1.111 -1.718,-2.083 V 0.003 c 0,-1.19 -0.586,-1.783 -1.757,-1.783 h -1.243 c -1.171,0 -1.757,0.593 -1.757,1.78 v 12.806 c 0,2.273 0.837,4.004 2.513,5.19 1.745,1.244 4.372,1.866 7.877,1.866 h 3.264 c 1.46,0 2.719,-0.143 3.778,-0.429 1.06,-0.287 2.133,-0.758 3.221,-1.416 0.871,0.529 1.843,0.951 2.915,1.265 1.315,0.387 2.68,0.58 4.095,0.58 h 3.301 c 3.33,0 5.844,-0.622 7.546,-1.866 C -0.814,16.795 0,15.065 0,12.806 Z" style="fill:#fff;fill-opacity:1;fill-rule:nonzero;stroke:none" id="path62"/></g><g id="g64" transform="translate(460.8691,403.8252)"><path d="m 0,0 v 8.412 c 0,0.889 -0.476,1.522 -1.425,1.895 -0.95,0.373 -2.668,0.558 -5.153,0.558 h -7.412 c -2.129,0 -3.664,-0.164 -4.607,-0.494 -1.142,-0.402 -1.714,-1.09 -1.714,-2.066 V -2.689 h 14.847 c 1.828,0 3.164,0.185 4.007,0.558 C -0.486,-1.701 0,-0.99 0,0 m 4.852,0.084 c 0,-2.277 -0.916,-3.98 -2.747,-5.111 -1.744,-1.075 -4.261,-1.612 -7.55,-1.612 h -14.866 v -4.382 c 0,-1.168 -0.585,-1.752 -1.756,-1.752 h -1.243 c -1.171,0 -1.757,0.585 -1.757,1.758 V 8.424 c 0,2.089 0.736,3.64 2.209,4.656 1.73,1.188 4.618,1.781 8.665,1.781 h 7.591 c 4.046,0 6.999,-0.558 8.858,-1.675 1.73,-1.045 2.596,-2.614 2.596,-4.704 z" style="fill:#fff;fill-opacity:1;fill-rule:nonzero;stroke:none" id="path66"/></g><g id="g68" transform="translate(496.7803,409.6494)"><path d="m 0,0 v 2.646 c 0,0.612 -0.637,1.156 -1.911,1.633 -1.274,0.477 -2.784,0.715 -4.53,0.715 h -6.914 c -2.076,0 -3.744,-0.193 -5.002,-0.576 -1.461,-0.441 -2.191,-1.09 -2.191,-1.943 V 0 Z m 4.613,-2.168 c 0,-0.514 -0.114,-0.971 -0.342,-1.371 -0.23,-0.399 -0.559,-0.6 -0.988,-0.6 h -23.688 c 0,-2.98 2.062,-4.47 6.188,-4.47 H 1.527 c 1.174,0 1.762,-0.595 1.762,-1.784 v -0.429 c 0,-1.19 -0.587,-1.783 -1.76,-1.783 h -15.223 c -2.16,0 -3.989,0.175 -5.484,0.525 -1.495,0.35 -2.657,0.839 -3.487,1.468 -1.76,1.385 -2.64,2.999 -2.64,4.842 v 7.95 c 0,2.114 1.023,3.785 3.067,5.013 2.045,1.229 4.826,1.844 8.343,1.844 h 8.901 c 2.673,0 4.896,-0.492 6.67,-1.478 1.958,-1.086 2.937,-2.592 2.937,-4.52 z" style="fill:#fff;fill-opacity:1;fill-rule:nonzero;stroke:none" id="path70"/></g><g id="g72" transform="translate(532.583,400.2568)"><path d="m 0,0 c 0.337,-0.243 0.583,-0.504 0.738,-0.782 0.155,-0.279 0.233,-0.568 0.233,-0.867 0,-0.443 -0.183,-0.814 -0.547,-1.114 -0.365,-0.3 -0.862,-0.45 -1.491,-0.45 h -1.416 c -0.129,0 -0.308,0.033 -0.537,0.099 -0.229,0.065 -0.4,0.137 -0.514,0.217 L -14.19,4.865 -24.954,-2.897 c -0.086,-0.053 -0.254,-0.119 -0.504,-0.197 -0.251,-0.079 -0.426,-0.119 -0.525,-0.119 h -1.481 c -0.615,0 -1.109,0.151 -1.48,0.455 -0.372,0.303 -0.558,0.664 -0.558,1.088 0,0.281 0.083,0.563 0.25,0.844 0.167,0.281 0.425,0.543 0.774,0.782 l 10.606,7.591 -10.493,7.646 c -0.343,0.245 -0.594,0.506 -0.751,0.787 -0.157,0.281 -0.236,0.573 -0.236,0.874 0,0.447 0.183,0.82 0.548,1.123 0.366,0.3 0.865,0.453 1.496,0.453 h 1.508 c 0.128,0 0.304,-0.035 0.527,-0.108 0.222,-0.071 0.398,-0.148 0.528,-0.234 l 10.6,-7.783 10.356,7.742 c 0.086,0.074 0.25,0.156 0.493,0.248 0.243,0.09 0.429,0.135 0.558,0.135 h 1.436 c 0.614,0 1.105,-0.151 1.469,-0.452 0.363,-0.302 0.547,-0.674 0.547,-1.119 0,-0.287 -0.08,-0.57 -0.239,-0.85 -0.16,-0.28 -0.405,-0.541 -0.736,-0.784 L -10.483,7.638 Z" style="fill:#fff;fill-opacity:1;fill-rule:nonzero;stroke:none" id="path74"/></g></g></g></g></svg>